<?xml version="1.0" encoding="UTF-8" standalone="no"?>
<svg
   xmlns:dc="http://purl.org/dc/elements/1.1/"
   xmlns:cc="http://creativecommons.org/ns#"
   xmlns:rdf="http://www.w3.org/1999/02/22-rdf-syntax-ns#"
   xmlns:svg="http://www.w3.org/2000/svg"
   xmlns="http://www.w3.org/2000/svg"
   xmlns:sodipodi="http://sodipodi.sourceforge.net/DTD/sodipodi-0.dtd"
   xmlns:inkscape="http://www.inkscape.org/namespaces/inkscape"
   width="240px"
   height="240px"
   viewBox="0 0 240 240"
   version="1.1"
   id="svg6384"
   sodipodi:docname="logo-black.svg"
   inkscape:export-filename="/home/josh/dungeon/my.dungeon.studio/dist/favicon.png"
   inkscape:export-xdpi="36"
   inkscape:export-ydpi="36"
   inkscape:version="0.92.2 5c3e80d, 2017-08-06">
  <metadata
     id="metadata6388">
    <rdf:RDF>
      <cc:Work
         rdf:about="">
        <dc:format>image/svg+xml</dc:format>
        <dc:type
           rdf:resource="http://purl.org/dc/dcmitype/StillImage" />
      </cc:Work>
    </rdf:RDF>
  </metadata>
  <sodipodi:namedview
     pagecolor="#ffffff"
     bordercolor="#666666"
     borderopacity="1"
     objecttolerance="10"
     gridtolerance="10"
     guidetolerance="10"
     inkscape:pageopacity="0"
     inkscape:pageshadow="2"
     inkscape:window-width="1588"
     inkscape:window-height="1743"
     id="namedview6386"
     showgrid="false"
     inkscape:zoom="2.7812867"
     inkscape:cx="113.47176"
     inkscape:cy="136.88027"
     inkscape:window-x="1600"
     inkscape:window-y="45"
     inkscape:window-maximized="0"
     inkscape:current-layer="Page-1" />
  <!-- Generator: Sketch 48.2 (47327) - http://www.bohemiancoding.com/sketch -->
  <title
     id="title6357">josh-ds-2</title>
  <desc
     id="desc6359">Created with Sketch.</desc>
  <defs
     id="defs6362">
    <polygon
       id="path-1"
       points="0 0 240 0 240 239.9998 0 239.9998" />
  </defs>
  <g
     id="g6382"
     style="fill:none;fill-rule:evenodd;stroke:none;stroke-width:1">
    <g
       id="josh-ds-2">
      <g
         id="Page-1"
         style="fill:#000000;fill-opacity:1">
        <path
           d="M 46.999585,83.7474 C 39.092596,78.548743 30.518166,74.376402 22.384784,69.501403 c -5.155055,-3.090685 -7.274766,-2.663054 -7.127191,3.974457 0.290119,13.114031 0.08553,26.239801 0.08217,39.36054 0,13.12074 -0.05199,26.24148 0.06373,39.36222 0.01342,1.70381 0.880418,3.40092 1.353328,5.09971 0.987744,-1.26277 2.228714,-2.39977 2.924663,-3.80676 C 29.823896,132.98874 40.043449,112.51945 49.733075,91.803641 50.63697,89.868399 48.943214,85.025263 46.999587,83.7474"
           id="Fill-1"
           inkscape:connector-curvature="0"
           style="fill:#fffff3;fill-opacity:1;stroke:#000000;stroke-width:2.51547909;stroke-linecap:square;stroke-linejoin:miter;stroke-miterlimit:4;stroke-dasharray:none;stroke-opacity:0.80314958;paint-order:normal" />
        <path
           d="m 66.399631,180.3755 c 11.416921,0.63726 22.84055,1.19402 34.250759,1.94699 5.71014,0.37732 7.96401,-0.63223 4.387,-6.69118 -13.752963,-23.29669 -27.311395,-46.71077 -40.739023,-70.19696 -2.899508,-5.0712 -4.450721,-5.520637 -7.180854,0.13248 -10.424145,21.59288 -20.957295,43.13879 -31.857704,64.49521 -3.421052,6.69956 -1.021285,8.15518 5.212072,8.39835 11.982066,0.4662 23.954069,1.21581 35.931104,1.84804 -0.0017,0.0235 -0.0034,0.0453 -0.0034,0.0671"
           id="Fill-3"
           inkscape:connector-curvature="0"
           style="fill:#fffff3;fill-opacity:1;stroke:#000000;stroke-width:3.3539722;stroke-linecap:square;stroke-linejoin:miter;stroke-miterlimit:4;stroke-dasharray:none;stroke-opacity:0.80314958;paint-order:normal" />
        <path
           d="m 54.947996,73.420184 c 1.490841,0.76806 5.18021,0.04025 6.080752,-1.24097 12.669629,-18.041016 25.045787,-36.288301 37.415236,-54.537264 0.533281,-0.786506 0.318627,-2.081139 0.533281,-3.776572 -1.710525,0.811661 -2.228714,1.022961 -2.713363,1.292956 -22.667821,12.631059 -45.359119,25.223548 -67.892781,38.089385 -0.732843,0.419246 -0.581914,4.784441 0.352167,5.35797 8.561014,5.240582 17.299788,10.22123 26.224708,14.814495"
           id="Fill-5"
           inkscape:connector-curvature="0"
           style="fill:#fffff3;fill-opacity:1;stroke:#000000;stroke-width:2.51547909;stroke-linecap:square;stroke-linejoin:miter;stroke-miterlimit:4;stroke-dasharray:none;stroke-opacity:0.80314958;paint-order:normal" />
        <path
           d="m 78.836998,80.693943 c 14.240966,-0.02683 28.480252,-0.0084 42.721222,-0.0017 14.51934,0 29.04037,-0.103973 43.55971,0.05031 6.05728,0.06373 7.69234,-1.31308 3.87216,-6.961169 -14.22587,-21.03779 -28.27231,-42.203031 -42.18458,-63.452122 -2.95988,-4.5194774 -4.71066,-5.2439354 -8.06463,-0.241486 -14.45394,21.56101 -29.1326,42.972768 -43.906848,64.317447 -4.128739,5.963362 -0.714396,6.297082 4.002966,6.288697"
           id="Fill-7"
           inkscape:connector-curvature="0"
           style="fill:#fffff3;fill-opacity:1;stroke:#000000;stroke-width:3.3539722;stroke-linecap:square;stroke-linejoin:miter;stroke-miterlimit:4;stroke-dasharray:none;stroke-opacity:0.80314958;paint-order:normal" />
        <path
           d="m 109.86191,195.55189 c -11.059722,-1.21246 -22.206648,-1.61661 -33.323389,-2.30418 0,-0.0201 0,-0.0402 0,-0.0604 -10.843392,-0.55843 -21.686784,-1.16047 -32.535207,-1.62332 -1.479101,-0.0637 -2.986712,0.56011 -4.480906,0.86533 0.949174,0.89047 1.76922,2.00735 2.867646,2.63789 22.699683,13.03857 45.401044,26.07546 68.265076,38.82391 0.93911,0.52322 4.95214,-1.7055 4.99238,-2.74858 0.38571,-10.01496 0.54838,-20.07017 -0.052,-30.06333 -0.12242,-2.03083 -3.55689,-5.28921 -5.73362,-5.52735"
           id="Fill-9"
           inkscape:connector-curvature="0"
           style="fill:#fffff3;fill-opacity:1;stroke:#000000;stroke-width:2.51547909;stroke-linecap:square;stroke-linejoin:miter;stroke-miterlimit:4;stroke-dasharray:none;stroke-opacity:0.80314958;paint-order:normal" />
        <path
           d="m 181.59734,70.203725 c 0.92402,1.381836 2.60603,3.92247 2.99342,3.753095 11.24084,-4.873322 22.36261,-10.023346 34.79411,-15.721745 -3.07392,-2.362873 -4.42054,-3.642413 -5.97846,-4.559725 -20.64873,-12.16318 -41.31423,-24.299528 -62.02501,-36.358735 -1.48748,-0.867002 -3.34894,-1.091718 -5.03599,-1.614937 0.77142,1.70214 1.32985,3.545148 2.34778,5.082944 10.92221,16.504897 21.90815,32.964516 32.90415,49.419103"
           id="Fill-11"
           inkscape:connector-curvature="0"
           style="fill:#fffff3;fill-opacity:1;stroke:#000000;stroke-width:2.51547909;stroke-linecap:square;stroke-linejoin:miter;stroke-miterlimit:4;stroke-dasharray:none;stroke-opacity:0.80314958;paint-order:normal" />
        <path
           d="m 217.90811,72.174687 c -6.97123,4.075076 -14.30637,7.554822 -21.0881,11.909955 -1.73568,1.115195 -3.43111,5.253997 -2.6815,6.830364 8.61636,18.106414 17.68885,35.996504 26.72445,53.900014 0.53161,1.05314 1.78934,1.73903 2.71001,2.59429 0.35384,-1.23929 1.00619,-2.47691 1.0129,-3.71788 0.0805,-11.42698 0.0486,-22.85564 0.0486,-34.28262 0,-11.148605 -0.17273,-22.30224 0.0671,-33.445812 0.13081,-6.162924 -2.0258,-6.575462 -6.79347,-3.788311"
           id="Fill-13"
           inkscape:connector-curvature="0"
           style="fill:#fffff3;fill-opacity:1;stroke:#000000;stroke-width:2.51547909;stroke-linecap:square;stroke-linejoin:miter;stroke-miterlimit:4;stroke-dasharray:none;stroke-opacity:0.80314958;paint-order:normal" />
        <path
           d="m 164.62121,92.929066 c -14.22084,0.229747 -28.45007,0.07546 -42.67594,0.07714 -14.22588,0 -28.45678,0.211301 -42.675945,-0.09391 -6.525153,-0.140867 -7.029925,1.638416 -3.917439,6.929307 14.42208,24.509147 28.723414,49.090417 42.788304,73.805837 3.40092,5.97677 5.08965,4.70562 7.94723,-0.28845 14.12358,-24.68188 28.34945,-49.31009 42.81178,-73.795767 3.5703,-6.047212 1.35333,-6.724714 -4.27799,-6.634157"
           id="Fill-15"
           inkscape:connector-curvature="0"
           style="fill:#fffff3;fill-opacity:1;stroke:#000000;stroke-width:5.03095818;stroke-linecap:square;stroke-linejoin:miter;stroke-miterlimit:4;stroke-dasharray:none;stroke-opacity:0.80314958;paint-order:normal" />
        <path
           d="m 169.63573,190.70037 c -8.07804,0.4595 -16.15608,0.91564 -24.23412,1.37681 -21.01432,1.20072 -16.69775,-0.44943 -17.18408,18.25902 -0.15261,5.85939 0.0386,11.72549 -0.005,17.58823 -0.0352,4.54463 1.18731,6.25516 5.851,3.55689 22.70304,-13.1308 45.50837,-26.0872 68.24495,-39.16266 1.08837,-0.62383 1.86816,-1.78431 2.78883,-2.69491 -1.23594,-0.26832 -2.48697,-0.82173 -3.70614,-0.758 -10.58849,0.54837 -21.17027,1.20743 -31.75541,1.83462"
           id="Fill-20"
           inkscape:connector-curvature="0"
           style="fill:#fffff3;fill-opacity:1;stroke:#000000;stroke-width:2.51547909;stroke-linecap:square;stroke-linejoin:miter;stroke-miterlimit:4;stroke-dasharray:none;stroke-opacity:0.80314958;paint-order:normal" />
        <path
           d="m 187.11798,105.57941 c -0.86533,-1.71053 -2.07444,-3.24497 -3.12423,-4.85991 -1.38351,1.54283 -3.08062,2.90287 -4.10694,4.657 -13.06037,22.36931 -26.05533,44.7772 -38.95806,67.2354 -1.16886,2.03586 -1.58643,4.50438 -2.35114,6.76999 2.42325,0.28676 4.84817,0.57353 4.89177,0.57856 25.49019,-1.5378 48.55546,-3.04708 71.63749,-4.23439 5.50219,-0.28341 6.70292,-1.55121 4.02309,-6.75825 -10.835,-21.0445 -21.33964,-42.25838 -32.01198,-63.3884"
           id="Fill-22"
           inkscape:connector-curvature="0"
           style="fill:#fffff3;fill-opacity:1;stroke:#000000;stroke-width:3.3539722;stroke-linecap:square;stroke-linejoin:miter;stroke-miterlimit:4;stroke-dasharray:none;stroke-opacity:0.80314958;paint-order:normal" />
      </g>
    </g>
  </g>
</svg>
