<svg width="240" height="240" xmlns="http://www.w3.org/2000/svg"><g fill="#000" fill-rule="evenodd"><path d="M182.385 113.73c0-6.648-.102-13.297.04-19.943.08-3.675-1.208-3.92-4.05-2.26-4.158 2.431-8.532 4.507-12.575 7.102-1.036.665-2.047 3.133-1.6 4.075 5.14 10.797 10.548 21.464 15.936 32.14.317.629 1.068 1.037 1.617 1.548.211-.74.6-1.477.604-2.219.047-6.814.028-13.629.028-20.442m-3.13-30.515c-1.833-1.41-2.636-2.172-3.565-2.72a8485.97 8485.97 0 0 0-36.986-21.68c-.887-.518-1.997-.652-3.003-.964.46 1.016.793 2.115 1.4 3.032a7845.924 7845.924 0 0 0 19.621 29.469c.551.824 1.554 2.339 1.785 2.238 6.704-2.906 13.336-5.977 20.748-9.375m-71.8-26.458c-1.02.483-1.329.61-1.618.77C92.32 65.061 78.79 72.57 65.353 80.243c-.438.25-.348 2.852.21 3.194 5.105 3.125 10.315 6.095 15.637 8.834.89.459 3.09.025 3.626-.74 7.555-10.758 14.935-21.639 22.311-32.52.318-.47.19-1.241.318-2.252m-13.38 106.968v-.037c-6.467-.333-12.932-.691-19.4-.969-.883-.037-1.783.334-2.674.517.567.53 1.056 1.197 1.711 1.573 13.536 7.774 27.073 15.548 40.706 23.15.561.313 2.954-1.017 2.978-1.639.23-5.971.327-11.968-.03-17.927-.074-1.21-2.122-3.154-3.42-3.296-6.595-.722-13.242-.964-19.872-1.373m55.516-1.52c-4.818.274-9.635.546-14.452.821-12.53.716-9.956-.268-10.247 10.888-.09 3.495.023 6.993-.003 10.489-.02 2.71.708 3.73 3.49 2.12 13.537-7.83 27.136-15.555 40.694-23.352.65-.373 1.114-1.064 1.664-1.607-.737-.16-1.484-.49-2.21-.452-6.315.327-12.625.72-18.936 1.094m-92.009-46.431c0 7.823-.03 15.648.038 23.471.01 1.016.526 2.028.807 3.042.59-.752 1.33-1.431 1.745-2.27 6.047-12.227 12.141-24.433 17.92-36.785.54-1.154-.472-4.043-1.63-4.805-4.716-3.099-9.828-5.587-14.679-8.495-3.074-1.843-4.337-1.588-4.25 2.37.173 7.822.051 15.648.05 23.472m76.404 40.026c15.2-.916 28.954-1.817 42.718-2.525 3.281-.17 3.997-.925 2.4-4.03-6.462-12.549-12.726-25.2-19.09-37.799-.515-1.02-1.237-1.934-1.863-2.898-.825.92-1.837 1.731-2.448 2.777a6602.29 6602.29 0 0 0-23.232 40.094c-.697 1.214-.946 2.686-1.402 4.037 1.445.17 2.892.341 2.917.345m-45.955.208a.51.51 0 0 0-.002.038c6.808.381 13.62.714 20.424 1.161 3.405.226 4.75-.376 2.616-3.99a3464.254 3464.254 0 0 1-24.293-41.857c-1.73-3.025-2.654-3.293-4.282.078-6.216 12.876-12.497 25.725-18.997 38.459-2.04 3.995-.61 4.863 3.107 5.007 7.146.28 14.285.726 21.427 1.103m32.89-59.402c8.658 0 17.317-.063 25.974.03 3.612.038 4.587-.782 2.31-4.15a3048.28 3048.28 0 0 1-25.156-37.838c-1.764-2.696-2.809-3.127-4.809-.144-8.619 12.857-17.372 25.624-26.182 38.352-2.462 3.556-.426 3.757 2.388 3.75 8.491-.016 16.983-.004 25.475 0m.23 7.343c-8.483 0-16.969.126-25.448-.056-3.89-.085-4.193.977-2.336 4.131 8.6 14.615 17.128 29.273 25.516 44.012 2.027 3.564 3.034 2.806 4.738-.172 8.422-14.719 16.905-29.405 25.53-44.006 2.128-3.605.807-4.01-2.552-3.956-8.48.137-16.965.046-25.448.046m68.426 16.532c.001 11.665.197 23.334-.169 34.987-.07 2.262-1.77 5.413-3.672 6.532-20.673 12.155-41.497 24.054-62.418 35.776-1.72.965-4.915.977-6.632.017a3833.434 3833.434 0 0 1-62.888-35.976c-1.687-.986-3.24-3.81-3.259-5.796-.222-23.991-.236-47.987.018-71.978.022-2.072 1.82-5 3.642-6.042a3857.467 3857.467 0 0 1 64.114-35.809c1.744-.953 4.963-.93 6.681.057a3651.462 3651.462 0 0 1 61.171 35.932c1.691 1.016 3.213 3.809 3.262 5.814.3 12.155.15 24.323.15 36.486"/><path d="M120 10C59.346 10 10 59.346 10 120s49.346 110 110 110 110-49.346 110-110S180.654 10 120 10m0 230C53.832 240 0 186.168 0 120S53.832 0 120 0s120 53.832 120 120-53.832 120-120 120"/></g></svg>