<svg xmlns="http://www.w3.org/2000/svg" width="240" height="240"><g fill="#fffff3" stroke="#000" stroke-linecap="square" stroke-opacity=".803" fill-rule="evenodd"><path d="M47 83.747c-7.907-5.198-16.482-9.37-24.615-14.246-5.155-3.09-7.275-2.663-7.127 3.975.29 13.114.085 26.24.082 39.36 0 13.121-.052 26.242.063 39.363.014 1.703.88 3.4 1.354 5.1.988-1.263 2.229-2.4 2.924-3.807 10.143-20.503 20.362-40.973 30.052-61.688.904-1.936-.79-6.779-2.733-8.057" stroke-width="2.515"/><path d="M66.4 180.375c11.417.638 22.84 1.195 34.25 1.947 5.71.378 7.964-.632 4.387-6.69-13.753-23.297-27.311-46.711-40.739-70.198-2.9-5.07-4.45-5.52-7.18.133-10.425 21.593-20.958 43.139-31.858 64.495-3.421 6.7-1.021 8.155 5.212 8.398 11.982.467 23.954 1.216 35.931 1.848l-.003.068" stroke-width="3.354"/><path d="M54.948 73.42c1.49.768 5.18.04 6.08-1.24 12.67-18.042 25.047-36.29 37.416-54.538.533-.787.319-2.081.533-3.777-1.71.812-2.228 1.023-2.713 1.293-22.668 12.631-45.36 25.224-67.893 38.09-.733.419-.582 4.784.352 5.358 8.561 5.24 17.3 10.22 26.225 14.814" stroke-width="2.515"/><path d="M78.837 80.694c14.241-.027 28.48-.008 42.721-.002 14.52 0 29.04-.104 43.56.05 6.057.064 7.692-1.313 3.872-6.96-14.226-21.038-28.272-42.204-42.184-63.453-2.96-4.52-4.711-5.244-8.065-.241-14.454 21.56-29.133 42.973-43.907 64.317-4.129 5.964-.714 6.297 4.003 6.289" stroke-width="3.354"/><path d="M109.862 195.552c-11.06-1.213-22.207-1.617-33.323-2.304v-.06c-10.844-.56-21.687-1.161-32.536-1.624-1.479-.064-2.986.56-4.48.865.949.89 1.769 2.008 2.867 2.638 22.7 13.039 45.401 26.076 68.265 38.824.94.523 4.952-1.705 4.993-2.748.385-10.015.548-20.07-.052-30.064-.123-2.03-3.557-5.289-5.734-5.527M181.597 70.204c.924 1.382 2.606 3.922 2.994 3.753 11.24-4.874 22.362-10.024 34.794-15.722-3.074-2.363-4.42-3.642-5.979-4.56-20.648-12.163-41.314-24.3-62.025-36.358-1.487-.867-3.349-1.092-5.036-1.615.772 1.702 1.33 3.545 2.348 5.083 10.922 16.505 21.908 32.964 32.904 49.419M217.908 72.175c-6.971 4.075-14.306 7.555-21.088 11.91-1.736 1.115-3.431 5.254-2.681 6.83 8.616 18.106 17.688 35.997 26.724 53.9.532 1.053 1.79 1.74 2.71 2.594.354-1.239 1.006-2.477 1.013-3.718.08-11.427.048-22.855.048-34.282 0-11.149-.172-22.302.068-33.446.13-6.163-2.026-6.575-6.794-3.788" stroke-width="2.515"/><path d="M164.621 92.93c-14.22.229-28.45.075-42.676.076-14.226 0-28.457.212-42.676-.094-6.525-.14-7.03 1.639-3.917 6.93 14.422 24.509 28.723 49.09 42.788 73.805 3.401 5.977 5.09 4.706 7.947-.288 14.124-24.682 28.35-49.31 42.812-73.796 3.57-6.047 1.354-6.724-4.278-6.634" stroke-width="5.031"/><path d="M169.636 190.7c-8.078.46-16.156.916-24.234 1.377-21.015 1.2-16.698-.45-17.184 18.26-.153 5.859.038 11.725-.005 17.587-.036 4.545 1.187 6.256 5.85 3.557 22.704-13.13 45.509-26.087 68.245-39.162 1.089-.624 1.869-1.785 2.79-2.695-1.237-.269-2.488-.822-3.707-.758-10.588.548-21.17 1.207-31.755 1.834" stroke-width="2.515"/><path d="M187.118 105.58c-.865-1.711-2.074-3.246-3.124-4.86-1.384 1.542-3.08 2.902-4.107 4.656a11122.671 11122.671 0 0 0-38.958 67.236c-1.17 2.036-1.587 4.504-2.351 6.77l4.891.578c25.49-1.537 48.556-3.047 71.638-4.234 5.502-.283 6.703-1.551 4.023-6.758-10.835-21.045-21.34-42.259-32.012-63.389" stroke-width="3.354"/></g></svg>