<svg width="240" height="240" xmlns="http://www.w3.org/2000/svg" xmlns:xlink="http://www.w3.org/1999/xlink"><defs><path id="a" d="M0 0h240v240H0z"/></defs><g fill="none" fill-rule="evenodd"><path d="M76.46 98.429c-4.714-3.1-9.827-5.588-14.677-8.495-3.074-1.843-4.338-1.588-4.25 2.37.173 7.82.05 15.647.049 23.47 0 7.825-.031 15.649.038 23.473.008 1.016.525 2.028.807 3.04.589-.752 1.329-1.43 1.744-2.27 6.048-12.225 12.142-24.431 17.92-36.784.539-1.154-.471-4.042-1.63-4.804M88.03 156.049c6.807.38 13.62.712 20.423 1.16 3.405.226 4.75-.376 2.616-3.99a3477.723 3477.723 0 0 1-24.293-41.858c-1.729-3.024-2.654-3.292-4.282.079-6.216 12.876-12.497 25.724-18.997 38.459-2.04 3.995-.609 4.863 3.108 5.008 7.145.278 14.284.725 21.426 1.102l-.002.04M81.2 92.27c.89.459 3.09.025 3.626-.74 7.555-10.758 14.935-21.639 22.311-32.52.318-.47.19-1.241.318-2.252-1.02.483-1.329.61-1.618.77C92.32 65.061 78.79 72.57 65.352 80.243c-.437.25-.347 2.852.21 3.194 5.105 3.125 10.316 6.095 15.638 8.834M95.446 96.608c8.492-.016 16.983-.005 25.475-.001 8.658 0 17.317-.062 25.975.03 3.612.038 4.587-.783 2.309-4.151a3051.866 3051.866 0 0 1-25.155-37.837c-1.765-2.695-2.81-3.127-4.81-.144-8.618 12.857-17.371 25.625-26.181 38.353-2.462 3.556-.426 3.755 2.387 3.75M113.946 165.099c-6.595-.723-13.242-.964-19.871-1.374v-.036c-6.466-.333-12.932-.692-19.401-.968-.882-.038-1.781.334-2.672.516.566.53 1.055 1.197 1.71 1.573 13.536 7.775 27.073 15.549 40.707 23.15.56.313 2.953-1.016 2.977-1.638.23-5.972.327-11.968-.031-17.927-.073-1.211-2.121-3.154-3.419-3.296M156.722 90.353c.551.824 1.554 2.339 1.785 2.238 6.703-2.906 13.335-5.977 20.748-9.375-1.833-1.41-2.636-2.172-3.565-2.72a8485.97 8485.97 0 0 0-36.986-21.68c-.887-.518-1.997-.652-3.003-.964.46 1.016.793 2.115 1.4 3.032a7845.924 7845.924 0 0 0 19.621 29.469M178.375 91.528c-4.157 2.43-8.531 4.505-12.575 7.102-1.035.665-2.046 3.133-1.6 4.073 5.139 10.797 10.549 21.465 15.937 32.14.317.629 1.067 1.038 1.616 1.548.21-.74.6-1.477.604-2.217.048-6.814.029-13.63.029-20.443 0-6.648-.103-13.3.04-19.944.078-3.675-1.208-3.921-4.051-2.26M146.6 103.904c-8.48.137-16.966.045-25.449.046-8.483 0-16.969.126-25.448-.056-3.89-.084-4.192.977-2.336 4.132 8.6 14.615 17.128 29.273 25.515 44.01 2.028 3.565 3.035 2.807 4.74-.171 8.421-14.718 16.904-29.404 25.528-44.005 2.13-3.606.807-4.01-2.55-3.956" fill="#000"/><mask id="b" fill="#fff"><use xlink:href="#a"/></mask><path d="M189.408 155.468c-.07 2.262-1.77 5.414-3.672 6.533-20.673 12.154-41.497 24.052-62.418 35.776-1.721.964-4.915.977-6.632.016a3833.381 3833.381 0 0 1-62.888-35.975c-1.687-.986-3.24-3.811-3.259-5.796-.222-23.992-.235-47.988.018-71.98.022-2.07 1.819-5 3.643-6.04a3846.146 3846.146 0 0 1 64.113-35.81c1.744-.952 4.963-.93 6.682.058a3659.53 3659.53 0 0 1 61.171 35.932c1.69 1.015 3.212 3.807 3.262 5.813.299 12.156.149 24.324.149 36.487.001 11.664.197 23.334-.169 34.986M120 0C53.832 0 0 53.832 0 120s53.832 120 120 120 120-53.832 120-120S186.168 0 120 0" fill="#000" mask="url(#b)"/><path d="M149.59 162.206l-14.451.82c-12.531.717-9.957-.267-10.247 10.889-.091 3.494.023 6.992-.003 10.488-.021 2.71.708 3.73 3.489 2.12 13.538-7.83 27.137-15.555 40.695-23.352.649-.372 1.114-1.064 1.663-1.607-.737-.16-1.483-.49-2.21-.452-6.314.327-12.624.72-18.936 1.094M160.014 111.447c-.516-1.02-1.237-1.935-1.863-2.898-.825.92-1.837 1.731-2.449 2.777a6632.821 6632.821 0 0 0-23.23 40.093c-.698 1.214-.947 2.686-1.403 4.037l2.917.345c15.2-.917 28.954-1.817 42.718-2.525 3.281-.169 3.997-.925 2.4-4.03-6.462-12.549-12.726-25.199-19.09-37.799" fill="#000"/></g></svg>